<?xml version="1.0" encoding="UTF-8"?>
<svg version="1.1" xmlns="http://www.w3.org/2000/svg" width="1224" height="1220">
<path d="M0 0 C403.92 0 807.84 0 1224 0 C1224 402.6 1224 805.2 1224 1220 C820.08 1220 416.16 1220 0 1220 C0 817.4 0 414.8 0 0 Z " fill="#372A82" transform="translate(0,0)"/>
<path d="M0 0 C0.73178467 0.00215515 1.46356934 0.0043103 2.2175293 0.00653076 C52.4191102 0.24138402 106.56337097 15.03777841 144.625 49.3125 C145.78708984 50.31410156 145.78708984 50.31410156 146.97265625 51.3359375 C152.31442962 56.00890348 157.3906398 60.95063401 162.4375 65.9375 C163.07204102 66.55898926 163.70658203 67.18047852 164.36035156 67.82080078 C168.27574996 71.72895228 171.52957575 75.72537606 174.625 80.3125 C178.59863159 78.87151272 181.94191939 76.9599637 185.5 74.6875 C204.08380041 63.11615579 224.37885298 53.82780415 245.625 48.3125 C246.85992188 47.97863281 248.09484375 47.64476562 249.3671875 47.30078125 C253.75792168 46.15739952 258.17550432 45.19761967 262.625 44.3125 C263.39344238 44.15861816 264.16188477 44.00473633 264.95361328 43.84619141 C290.49992058 39.02662497 320.74970696 38.49192252 346.26123047 43.82080078 C348.86606061 44.36264419 351.47964863 44.83470296 354.09765625 45.30859375 C384.69648019 51.117343 414.54617189 63.81733053 439.625 82.3125 C440.56907715 83.00641846 440.56907715 83.00641846 441.53222656 83.71435547 C465.03185208 101.18096367 484.07115053 122.5831478 497.70214844 148.56933594 C498.51551957 150.10570363 499.36814144 151.62115395 500.2265625 153.1328125 C508.0573246 167.49618897 516.46183814 188.72681283 515.4296875 205.35546875 C515.29032547 209.70848274 515.22368218 213.53829354 517.625 217.3125 C523.582271 222.14583434 530.91968102 224.99117227 537.88867188 228.05761719 C543.2400839 230.51178009 547.89709566 233.82006263 552.625 237.3125 C554.18154297 238.44558594 554.18154297 238.44558594 555.76953125 239.6015625 C563.36631251 245.23069368 570.36453447 251.40773352 577.18945312 257.94433594 C578.44043618 259.13659938 579.71082325 260.30843722 580.984375 261.4765625 C611.97569174 290.77127431 629.29404686 334.16565046 630.625 376.3125 C630.65754883 377.05274414 630.69009766 377.79298828 630.72363281 378.55566406 C631.96669706 408.47709949 624.31963368 438.24917854 609.625 464.3125 C609.03976562 465.38242187 608.45453125 466.45234375 607.8515625 467.5546875 C584.13119832 509.7361496 543.70949366 539.5575311 498.625 555.3125 C497.81772461 555.59754395 497.01044922 555.88258789 496.17871094 556.17626953 C487.28578951 559.27653729 478.37123931 561.75793657 469.125 563.5625 C468.35607422 563.71364258 467.58714844 563.86478516 466.79492188 564.02050781 C449.85664854 567.08823271 433.00210776 567.60480481 415.8377533 567.57319641 C413.48462302 567.57622301 411.13149373 567.58011503 408.77836615 567.58478898 C403.03090173 567.59394539 397.28349026 567.59393955 391.5360212 567.58987736 C384.64044696 567.5855222 377.74489669 567.59283562 370.84932694 567.60036864 C356.55633452 567.61555543 342.26335991 567.61731915 327.97036111 567.61484561 C316.92650792 567.61300803 305.88266052 567.61478228 294.83880806 567.61907005 C293.24825234 567.61967247 291.65769662 567.62027367 290.0671409 567.62087366 C287.66986751 567.62178098 285.27259413 567.62268965 282.87532075 567.62360601 C260.60493177 567.63202774 238.33454497 567.63637669 216.06415462 567.63219929 C215.2257514 567.63204291 214.38734817 567.63188654 213.52353879 567.63172542 C209.27486188 567.63091972 205.02618497 567.63007395 200.77750807 567.62921212 C199.93381511 567.62904103 199.09012215 567.62886994 198.22086273 567.62869367 C196.51471259 567.62834701 194.80856244 567.62799848 193.1024123 567.62764808 C166.56834309 567.62229365 140.03430714 567.63021662 113.50024414 567.64868164 C83.6389524 567.6694381 53.77768125 567.68011732 23.9163819 567.67610615 C20.7268887 567.67571086 17.5373955 567.6753493 14.3479023 567.67500877 C13.17003867 567.67487268 13.17003867 567.67487268 11.96837982 567.67473383 C0.15894898 567.67357207 -11.65046094 567.68018402 -23.45988655 567.69082069 C-36.90582797 567.70291956 -50.35172357 567.70437811 -63.79766572 567.69203053 C-70.64847842 567.68601942 -77.49919655 567.68497778 -84.3500042 567.69703293 C-90.63901735 567.7079702 -96.92786744 567.70469615 -103.21687322 567.69077124 C-105.47449178 567.68814571 -107.73212345 567.69042212 -109.98972905 567.69850711 C-172.9011412 567.9079088 -228.55852052 546.75168709 -273.9375 502.9375 C-308.08745343 468.06944007 -324.04416093 422.22275228 -323.58984375 374.05859375 C-323.39956701 365.57650589 -322.28461465 357.56368931 -320.375 349.3125 C-320.20871094 348.56129883 -320.04242188 347.81009766 -319.87109375 347.03613281 C-314.00415992 320.99346543 -302.55464323 296.81032977 -285.375 276.3125 C-284.43456131 275.16954601 -283.49446778 274.02630793 -282.5546875 272.8828125 C-275.37288554 264.2094337 -267.96604831 256.60739905 -259.16796875 249.5546875 C-257.46436782 248.18704144 -255.77523154 246.80078045 -254.11328125 245.3828125 C-243.64353006 236.57579667 -221.61637493 218.3125 -207.375 218.3125 C-207.5915625 216.42144531 -207.5915625 216.42144531 -207.8125 214.4921875 C-213.06787426 166.0669996 -202.43913992 120.10855675 -171.97607422 81.29052734 C-168.20118237 76.62688389 -164.18718029 72.23447565 -159.98339844 67.95605469 C-158.25383943 66.18869111 -156.55328621 64.39572096 -154.8515625 62.6015625 C-136.46560324 43.44830366 -113.81132728 28.63158577 -89.375 18.3125 C-88.67375 18.01150391 -87.9725 17.71050781 -87.25 17.40039062 C-69.70556741 9.94718511 -51.25054808 4.94754276 -32.375 2.3125 C-31.22273926 2.14403564 -30.07047852 1.97557129 -28.88330078 1.80200195 C-19.22772675 0.44793473 -9.74426833 -0.05234339 0 0 Z " fill="#342982" transform="translate(459.375,307.6875)"/>
<path d="M0 0 C0.73178467 0.00215515 1.46356934 0.0043103 2.2175293 0.00653076 C52.4191102 0.24138402 106.56337097 15.03777841 144.625 49.3125 C145.78708984 50.31410156 145.78708984 50.31410156 146.97265625 51.3359375 C152.31442962 56.00890348 157.3906398 60.95063401 162.4375 65.9375 C163.07204102 66.55898926 163.70658203 67.18047852 164.36035156 67.82080078 C168.27574996 71.72895228 171.52957575 75.72537606 174.625 80.3125 C178.59863159 78.87151272 181.94191939 76.9599637 185.5 74.6875 C204.08380041 63.11615579 224.37885298 53.82780415 245.625 48.3125 C246.85992188 47.97863281 248.09484375 47.64476562 249.3671875 47.30078125 C253.75792168 46.15739952 258.17550432 45.19761967 262.625 44.3125 C263.39344238 44.15861816 264.16188477 44.00473633 264.95361328 43.84619141 C290.49992058 39.02662497 320.74970696 38.49192252 346.26123047 43.82080078 C348.86606061 44.36264419 351.47964863 44.83470296 354.09765625 45.30859375 C384.69648019 51.117343 414.54617189 63.81733053 439.625 82.3125 C440.56907715 83.00641846 440.56907715 83.00641846 441.53222656 83.71435547 C465.03185208 101.18096367 484.07115053 122.5831478 497.70214844 148.56933594 C498.51551957 150.10570363 499.36814144 151.62115395 500.2265625 153.1328125 C508.0573246 167.49618897 516.46183814 188.72681283 515.4296875 205.35546875 C515.29032547 209.70848274 515.22368218 213.53829354 517.625 217.3125 C523.582271 222.14583434 530.91968102 224.99117227 537.88867188 228.05761719 C543.2400839 230.51178009 547.89709566 233.82006263 552.625 237.3125 C554.18154297 238.44558594 554.18154297 238.44558594 555.76953125 239.6015625 C563.36631251 245.23069368 570.36453447 251.40773352 577.18945312 257.94433594 C578.44043618 259.13659938 579.71082325 260.30843722 580.984375 261.4765625 C611.97569174 290.77127431 629.29404686 334.16565046 630.625 376.3125 C630.65754883 377.05274414 630.69009766 377.79298828 630.72363281 378.55566406 C631.96669706 408.47709949 624.31963368 438.24917854 609.625 464.3125 C609.03976562 465.38242187 608.45453125 466.45234375 607.8515625 467.5546875 C584.13119832 509.7361496 543.70949366 539.5575311 498.625 555.3125 C497.81772461 555.59754395 497.01044922 555.88258789 496.17871094 556.17626953 C487.28578951 559.27653729 478.37123931 561.75793657 469.125 563.5625 C468.35607422 563.71364258 467.58714844 563.86478516 466.79492188 564.02050781 C449.85664854 567.08823271 433.00210776 567.60480481 415.8377533 567.57319641 C413.48462302 567.57622301 411.13149373 567.58011503 408.77836615 567.58478898 C403.03090173 567.59394539 397.28349026 567.59393955 391.5360212 567.58987736 C384.64044696 567.5855222 377.74489669 567.59283562 370.84932694 567.60036864 C356.55633452 567.61555543 342.26335991 567.61731915 327.97036111 567.61484561 C316.92650792 567.61300803 305.88266052 567.61478228 294.83880806 567.61907005 C293.24825234 567.61967247 291.65769662 567.62027367 290.0671409 567.62087366 C287.66986751 567.62178098 285.27259413 567.62268965 282.87532075 567.62360601 C260.60493177 567.63202774 238.33454497 567.63637669 216.06415462 567.63219929 C215.2257514 567.63204291 214.38734817 567.63188654 213.52353879 567.63172542 C209.27486188 567.63091972 205.02618497 567.63007395 200.77750807 567.62921212 C199.93381511 567.62904103 199.09012215 567.62886994 198.22086273 567.62869367 C196.51471259 567.62834701 194.80856244 567.62799848 193.1024123 567.62764808 C166.56834309 567.62229365 140.03430714 567.63021662 113.50024414 567.64868164 C83.6389524 567.6694381 53.77768125 567.68011732 23.9163819 567.67610615 C20.7268887 567.67571086 17.5373955 567.6753493 14.3479023 567.67500877 C13.17003867 567.67487268 13.17003867 567.67487268 11.96837982 567.67473383 C0.15894898 567.67357207 -11.65046094 567.68018402 -23.45988655 567.69082069 C-36.90582797 567.70291956 -50.35172357 567.70437811 -63.79766572 567.69203053 C-70.64847842 567.68601942 -77.49919655 567.68497778 -84.3500042 567.69703293 C-90.63901735 567.7079702 -96.92786744 567.70469615 -103.21687322 567.69077124 C-105.47449178 567.68814571 -107.73212345 567.69042212 -109.98972905 567.69850711 C-172.9011412 567.9079088 -228.55852052 546.75168709 -273.9375 502.9375 C-308.08745343 468.06944007 -324.04416093 422.22275228 -323.58984375 374.05859375 C-323.39956701 365.57650589 -322.28461465 357.56368931 -320.375 349.3125 C-320.20871094 348.56129883 -320.04242188 347.81009766 -319.87109375 347.03613281 C-314.00415992 320.99346543 -302.55464323 296.81032977 -285.375 276.3125 C-284.43456131 275.16954601 -283.49446778 274.02630793 -282.5546875 272.8828125 C-275.37288554 264.2094337 -267.96604831 256.60739905 -259.16796875 249.5546875 C-257.46436782 248.18704144 -255.77523154 246.80078045 -254.11328125 245.3828125 C-243.64353006 236.57579667 -221.61637493 218.3125 -207.375 218.3125 C-207.5915625 216.42144531 -207.5915625 216.42144531 -207.8125 214.4921875 C-213.06787426 166.0669996 -202.43913992 120.10855675 -171.97607422 81.29052734 C-168.20118237 76.62688389 -164.18718029 72.23447565 -159.98339844 67.95605469 C-158.25383943 66.18869111 -156.55328621 64.39572096 -154.8515625 62.6015625 C-136.46560324 43.44830366 -113.81132728 28.63158577 -89.375 18.3125 C-88.67375 18.01150391 -87.9725 17.71050781 -87.25 17.40039062 C-69.70556741 9.94718511 -51.25054808 4.94754276 -32.375 2.3125 C-31.22273926 2.14403564 -30.07047852 1.97557129 -28.88330078 1.80200195 C-19.22772675 0.44793473 -9.74426833 -0.05234339 0 0 Z M-30.375 24.3125 C-32.23125 24.64701172 -32.23125 24.64701172 -34.125 24.98828125 C-37.8835846 25.72463857 -41.63093339 26.50628337 -45.375 27.3125 C-46.12813477 27.47057129 -46.88126953 27.62864258 -47.65722656 27.79150391 C-80.26581807 34.76377962 -111.97948672 51.37622481 -135.80126953 74.76953125 C-137.42505037 76.36157204 -139.06891029 77.93089903 -140.71484375 79.5 C-169.76493388 107.49871332 -186.74300211 145.94098349 -187.65991211 186.27783203 C-187.81238238 201.66788406 -186.12120721 216.64487559 -181.375 231.3125 C-182.13748047 231.4563916 -182.89996094 231.6002832 -183.68554688 231.74853516 C-209.07511945 237.0726013 -233.62066132 255.10006322 -252.375 272.3125 C-252.9225293 272.80943359 -253.47005859 273.30636719 -254.03417969 273.81835938 C-281.61626702 299.12512912 -299.24617815 335.77026076 -301.54785156 373.1171875 C-303.18451749 413.27739339 -290.32006447 452.18664242 -263.375 482.3125 C-254.15987901 492.289336 -244.57102909 501.57856874 -233.375 509.3125 C-232.75753906 509.74723633 -232.14007813 510.18197266 -231.50390625 510.62988281 C-220.11126267 518.58781355 -208.10355041 524.77114749 -195.375 530.3125 C-194.68083984 530.61526855 -193.98667969 530.91803711 -193.27148438 531.22998047 C-177.27618163 538.0500882 -159.62442632 542.32073593 -142.375 544.3125 C-141.58874166 544.40505778 -140.80248333 544.49761556 -139.99239898 544.59297812 C-129.19223218 545.66499938 -118.3483229 545.46437548 -107.50787354 545.46640015 C-105.1691861 545.47041984 -102.83049935 545.4748589 -100.49181342 545.4796797 C-94.75271913 545.49034772 -89.01363318 545.49638797 -83.27453066 545.50038858 C-76.39430951 545.50542134 -69.51410001 545.51615249 -62.63388579 545.52687032 C-45.21527846 545.55364886 -27.79666563 545.56874844 -10.37804377 545.58221143 C-5.6542872 545.58588661 -0.93053095 545.589889 3.79322529 545.5939641 C33.16511423 545.6192338 62.5370038 545.64126172 91.90890121 545.65369225 C98.70684562 545.65661312 105.50479001 545.65958075 112.30273438 545.66259766 C113.14721578 545.66296857 113.99169719 545.66333947 114.86176895 545.66372162 C142.20396242 545.67586047 169.54609128 545.70678003 196.88825445 545.74851918 C225.04297036 545.79141972 253.19765218 545.81794757 281.35240165 545.82316696 C285.33908334 545.82390725 289.32576497 545.8248179 293.31244659 545.82582474 C294.09692683 545.82601535 294.88140706 545.82620597 295.68965942 545.82640236 C308.25034188 545.8298987 320.81094268 545.85011626 333.37159528 545.87662137 C346.02905186 545.90292524 358.6864153 545.91042682 371.34389529 545.89952008 C378.18534546 545.89411349 385.02652413 545.89700472 391.867939 545.92198563 C440.98459023 546.25392999 440.98459023 546.25392999 488.625 535.3125 C489.27742676 535.08981445 489.92985352 534.86712891 490.60205078 534.63769531 C500.42571391 531.28188844 509.66970182 527.06958163 518.85302734 522.24121094 C520.42153639 521.41913758 522.00104037 520.61811767 523.58203125 519.8203125 C531.46681609 515.73361582 538.5454736 510.63950174 545.625 505.3125 C546.52863281 504.63703125 547.43226563 503.9615625 548.36328125 503.265625 C571.17524923 485.40375022 588.35246605 462.93049076 599.625 436.3125 C600.3365625 434.81203125 600.3365625 434.81203125 601.0625 433.28125 C603.31304058 428.02027373 604.45190047 422.42943092 605.75 416.875 C606.01425781 415.78123047 606.27851562 414.68746094 606.55078125 413.56054688 C615.40630179 376.22800979 606.22964012 337.72279625 586.625 305.3125 C580.47959402 295.99808395 573.35272733 287.35141099 565.625 279.3125 C565.18220703 278.84392578 564.73941406 278.37535156 564.28320312 277.89257812 C545.73700037 258.32875108 522.11685904 243.13489991 496.625 234.3125 C496.53863281 233.0028125 496.45226562 231.693125 496.36328125 230.34375 C493.4074323 190.23715552 480.57941075 153.86055481 452.05664062 124.77929688 C450.55461949 123.24039118 449.08218067 121.67622956 447.609375 120.109375 C435.64189795 107.55870936 421.79218533 97.65248217 406.625 89.3125 C405.6983252 88.80275635 405.6983252 88.80275635 404.75292969 88.28271484 C361.60312793 64.9201474 308.55938821 57.17054484 260.625 68.3125 C259.81724121 68.48910156 259.00948242 68.66570312 258.17724609 68.84765625 C233.21597953 74.36847703 207.68464059 84.17463184 187.625 100.3125 C187.95371094 100.86292969 188.28242187 101.41335938 188.62109375 101.98046875 C196.54546578 115.83201336 202.88883665 130.79170926 206.625 146.3125 C206.98665022 147.7513848 207.34864838 149.19018218 207.7109375 150.62890625 C208.08000046 152.12714343 208.44721432 153.62583741 208.8125 155.125 C208.97983643 155.8065918 209.14717285 156.48818359 209.31958008 157.19042969 C211.6396393 167.07371445 211.81139 176.87111451 211.81030273 186.96850586 C211.81249188 189.24156359 211.83071089 191.51413689 211.84960938 193.78710938 C211.91374334 209.93782963 211.91374334 209.93782963 209.625 216.3125 C206.77536773 219.08071421 205.06001463 219.26589129 201.125 219.6875 C197.42524712 219.29109791 195.55644468 218.55419299 192.625 216.3125 C190.94746939 212.95743877 191.57024363 209.17691858 191.6328125 205.4921875 C191.65036728 203.65755798 191.66727171 201.82292215 191.68359375 199.98828125 C191.71420851 197.11000748 191.74927056 194.23205721 191.79638672 191.35400391 C191.98414703 179.24240878 191.41494758 168.12860027 188.625 156.3125 C188.34527344 155.05695313 188.06554687 153.80140625 187.77734375 152.5078125 C178.52822091 112.25786086 149.81678641 77.35316949 115.625 55.3125 C114.92697266 54.86084473 114.22894531 54.40918945 113.50976562 53.94384766 C103.08451074 47.30006385 92.12142566 42.08630976 80.76733398 37.23120117 C78.87698051 36.42055728 76.99805777 35.5833687 75.12109375 34.7421875 C58.98619825 28.14400677 41.8080922 25.54909241 24.625 23.3125 C23.35213135 23.13525391 22.0792627 22.95800781 20.76782227 22.77539062 C16.71653528 22.27371669 12.68868679 22.15114244 8.609375 22.14453125 C7.87229309 22.14120285 7.13521118 22.13787445 6.37579346 22.13444519 C4.82621884 22.12941809 3.27663355 22.12703555 1.72705078 22.12719727 C-0.60533111 22.12501837 -2.93723315 22.10683839 -5.26953125 22.08789062 C-13.85186192 22.05550296 -21.94004458 22.54733371 -30.375 24.3125 Z " fill="#FCFCFD" transform="translate(459.375,307.6875)"/>
<path d="M0 0 C0.93479691 -0.01253311 1.86959381 -0.02506622 2.8327179 -0.03797913 C3.83175644 -0.02472092 4.83079498 -0.01146271 5.86010742 0.00219727 C6.89946945 -0.00021469 7.93883148 -0.00262665 9.00968933 -0.00511169 C11.20604266 -0.00413348 13.40242071 0.0092538 15.59863281 0.03417969 C18.94381527 0.06838103 22.28633908 0.05486242 25.6315918 0.03540039 C27.77027483 0.04230231 29.90895107 0.05197781 32.04760742 0.06469727 C33.04057327 0.0597374 34.03353912 0.05477753 35.05659485 0.04966736 C43.25625851 0.18718618 49.47961574 2.53608763 55.70385742 8.01000977 C61.49245759 14.48512855 64.56839854 21.4420034 64.42651367 30.06860352 C63.51412945 38.61894703 59.67941052 46.02102793 53.15307617 51.63110352 C52.49307617 51.63110352 51.83307617 51.63110352 51.15307617 51.63110352 C51.15307617 52.29110352 51.15307617 52.95110352 51.15307617 53.63110352 C52.06186523 54.01008789 52.06186523 54.01008789 52.98901367 54.39672852 C56.96878006 56.66677577 58.5592518 60.45378767 60.15307617 64.63110352 C60.52955908 66.99680465 60.8391458 69.37386423 61.09057617 71.75610352 C61.71293775 77.5440662 62.81350335 80.18435331 66.93823242 84.17797852 C68.15307617 85.63110352 68.15307617 85.63110352 68.27807617 88.88110352 C66.96502456 92.09078524 66.28503913 93.14754211 63.15307617 94.63110352 C59.00831635 95.1683872 56.73110639 94.91445166 52.96557617 93.06860352 C47.62297624 88.43835025 44.53763682 82.02791363 43.91870117 74.95141602 C43.7869788 73.04144169 43.67752722 71.12975016 43.59448242 69.21704102 C43.08165995 66.21271819 42.248303 64.82044219 40.15307617 62.63110352 C36.72424676 61.48816038 33.91224779 61.4214588 30.29760742 61.31469727 C29.63597092 61.29391617 28.97433441 61.27313507 28.29264832 61.25172424 C26.18372766 61.18645624 24.07468483 61.12745007 21.96557617 61.06860352 C20.53392303 61.02539662 19.10228213 60.98178163 17.6706543 60.93774414 C14.16492463 60.83079846 10.65905831 60.72946711 7.15307617 60.63110352 C7.17402344 61.48341553 7.1949707 62.33572754 7.21655273 63.21386719 C7.28492861 66.39139785 7.33497355 69.56855222 7.37280273 72.74658203 C7.39285607 74.11910375 7.42010645 75.49154069 7.45483398 76.86376953 C7.50362169 78.84182396 7.52396494 80.8205147 7.54370117 82.79907227 C7.56464844 83.98782959 7.5855957 85.17658691 7.60717773 86.40136719 C7.06015825 90.29196972 5.96339799 91.92634105 3.15307617 94.63110352 C-1.08847683 95.32517582 -3.07213524 95.11955719 -6.72192383 92.81860352 C-10.45888947 88.97172712 -10.0110041 84.89868833 -10.03979492 79.8425293 C-10.04797241 79.0503299 -10.0561499 78.25813049 -10.0645752 77.44192505 C-10.08939015 74.82009636 -10.10593337 72.19832159 -10.12036133 69.57641602 C-10.12568501 68.68073788 -10.13100868 67.78505974 -10.13649368 66.86223984 C-10.16320571 62.12325649 -10.1825886 57.38429934 -10.19702148 52.64526367 C-10.21037363 48.7225011 -10.23825211 44.80025713 -10.27905273 40.87768555 C-10.3283216 36.14091463 -10.35313505 31.40461495 -10.36024857 26.66759872 C-10.36696716 24.86305472 -10.38220507 23.05852147 -10.40613937 21.25412369 C-10.43773645 18.72834568 -10.43783679 16.2043903 -10.43041992 13.6784668 C-10.44682526 12.93439575 -10.46323059 12.19032471 -10.48013306 11.42370605 C-10.43389559 7.5745212 -9.95402029 5.77320203 -7.61338806 2.66758728 C-4.70328262 0.52536458 -3.53921606 0.00416386 0 0 Z " fill="#E5E3E1" transform="translate(206.846923828125,645.368896484375)"/>
<path d="M0 0 C7.51062448 6.31473635 13.64023623 14.215675 15.3125 24.08203125 C16.26839884 37.29081519 13.72049829 47.60603325 5.0625 57.70703125 C-5.61113786 66.92517304 -14.81592499 68.9678161 -28.58789062 68.26416016 C-37.80735107 67.46442556 -44.80353925 61.92808541 -50.6875 55.08203125 C-57.45722255 44.26146051 -59.40722169 33.02143967 -57.2265625 20.41796875 C-54.36960699 10.90598748 -48.14500775 2.92695953 -39.640625 -2.13671875 C-27.46479516 -8.54505025 -11.26250554 -8.03763113 0 0 Z " fill="#E4E2E1" transform="translate(342.6875,672.91796875)"/>
<path d="M0 0 C3.76120591 0.80597269 5.13031648 1.82258824 7.47213745 4.82324219 C9.48038413 8.58775815 9.14175183 12.57760913 9.06640625 16.75 C9.07204086 17.70390625 9.07767548 18.6578125 9.08348083 19.640625 C9.09989358 22.67758759 9.08441933 25.71308867 9.0625 28.75 C9.0458806 31.78677408 9.0368438 34.82258569 9.05223083 37.859375 C9.0614768 39.74479487 9.05246026 41.63041895 9.02259827 43.515625 C9.04636204 49.23123029 9.73411827 52.3745126 13.5 56.75 C16.30107012 58.15053506 18.68891681 57.9575504 21.8125 58 C22.94300781 58.02578125 24.07351563 58.0515625 25.23828125 58.078125 C28.92465805 57.70727991 30.64168787 57.0917497 33.5 54.75 C36.90846656 49.48713048 36.89885066 44.98385633 36.8359375 38.93359375 C36.84844381 37.01627262 36.86148065 35.09895488 36.875 33.18164062 C36.87893648 30.17736861 36.87493172 27.17343006 36.86035156 24.16918945 C36.85178367 21.25682031 36.8734502 18.34584049 36.8984375 15.43359375 C36.88509369 14.53764999 36.87174988 13.64170624 36.85800171 12.71861267 C36.91098958 8.24365591 37.04806148 6.3396422 39.85009766 2.68383789 C42.5 0.75 42.5 0.75 45.5 0.125 C49.55556251 0.96990886 50.90033692 2.56513992 53.5 5.75 C54.12818909 8.89675903 54.12818909 8.89675903 54.13110352 12.47705078 C54.13825882 13.13310806 54.14541412 13.78916534 54.15278625 14.46510315 C54.16963967 16.62589034 54.15028176 18.78459076 54.12890625 20.9453125 C54.12973588 22.45881318 54.13219879 23.97231375 54.13621521 25.48580933 C54.13907167 28.6584587 54.12439884 31.83040164 54.09692383 35.00292969 C54.0630153 39.04108146 54.0688016 43.07795612 54.0875864 47.11616707 C54.09823766 50.24437813 54.0891428 53.37230015 54.07420158 56.50048447 C54.06906673 57.98740654 54.06944363 59.47435943 54.07574654 60.96127701 C54.10451426 71.83493543 53.33172955 82.87632248 45.46484375 91.18359375 C34.73773275 99.73542578 22.73001973 100.5240969 9.5 99.75 C3.57513885 98.69908189 -0.88267276 96.76758295 -4.5 91.75 C-5.125 88.75 -5.125 88.75 -4.5 85.75 C-2.4375 82.8125 -2.4375 82.8125 0.5 80.75 C4.02966697 80.81302977 6.60447324 81.34897287 9.8203125 82.7890625 C15.74775444 84.91464664 23.59702603 84.78382708 29.5625 82.6875 C33.2492635 80.25580493 35.09435284 77.93286517 36.5 73.75 C36.8359512 69.95680591 36.8359512 69.95680591 36.5 66.75 C35.819375 67.348125 35.13875 67.94625 34.4375 68.5625 C28.61941429 72.89511702 23.63185779 74.2482145 16.4375 74.125 C15.75623047 74.13660156 15.07496094 74.14820313 14.37304688 74.16015625 C8.32778472 74.12531324 4.41264115 72.3894067 -0.125 68.5 C-7.20263348 60.30484545 -8.80993601 52.03237299 -8.87109375 41.43359375 C-8.88012222 40.4589064 -8.8891507 39.48421906 -8.89845276 38.47999573 C-8.91290108 36.42850798 -8.92182845 34.37697472 -8.92553711 32.32543945 C-8.93747755 29.19338777 -8.98675358 26.06327994 -9.03710938 22.93164062 C-9.04656992 20.93230122 -9.05380672 18.9329498 -9.05859375 16.93359375 C-9.07812607 16.00220078 -9.09765839 15.0708078 -9.11778259 14.1111908 C-9.0875855 9.74942432 -8.92534147 6.67493044 -6.18383789 3.16040039 C-3.5 0.75 -3.5 0.75 0 0 Z " fill="#E4E1E0" transform="translate(977.5,667.25)"/>
<path d="M0 0 C8.58442797 5.8309322 13.42586229 13.03149313 16.69140625 22.828125 C16.88570974 24.8016933 17.00270507 26.78353826 17.06640625 28.765625 C17.11539063 29.80589844 17.164375 30.84617187 17.21484375 31.91796875 C16.69140625 34.828125 16.69140625 34.828125 14.83178711 36.9855957 C10.22980431 39.68567844 6.16191664 39.32668733 0.921875 39.21875 C-0.11426437 39.21309021 -1.15040375 39.20743042 -2.21794128 39.20159912 C-5.51946683 39.17925166 -8.81989756 39.12905678 -12.12109375 39.078125 C-14.36261451 39.05805796 -16.60415232 39.03980755 -18.84570312 39.0234375 C-24.33370535 38.97939233 -29.82107132 38.91249618 -35.30859375 38.828125 C-34.54752729 40.26943002 -33.77754653 41.70602993 -33.00390625 43.140625 C-32.57609863 43.94113281 -32.14829102 44.74164062 -31.70751953 45.56640625 C-29.14470717 49.70984319 -25.97035131 52.27420581 -21.30859375 53.828125 C-13.72822639 54.32332488 -7.01940573 54.64108635 -0.30859375 50.828125 C2.78314377 49.28225624 5.28570177 49.53452979 8.69140625 49.828125 C11.50514888 51.77610066 12.48467187 52.93227602 13.25390625 56.265625 C12.42063937 60.06161858 10.68885568 61.39269734 7.69140625 63.828125 C-3.09468023 70.25105124 -15.15900506 71.8460794 -27.42578125 69.140625 C-29.89174628 68.21876891 -32.04941976 67.17607082 -34.30859375 65.828125 C-35.37980469 65.19197266 -35.37980469 65.19197266 -36.47265625 64.54296875 C-44.27725229 59.29605868 -48.70418471 51.92811341 -50.83984375 42.8515625 C-52.76689434 30.42208617 -51.45418006 19.23260257 -44.02734375 8.9296875 C-32.94280909 -4.62367533 -15.58114691 -8.87980143 0 0 Z " fill="#E3E1E0" transform="translate(644.30859375,671.171875)"/>
<path d="M0 0 C2.078125 1.125 2.078125 1.125 4.125 2.4375 C4.88296875 2.911875 5.6409375 3.38625 6.421875 3.875 C14.32875595 9.39389677 19.50893201 17.17686495 22.125 26.4375 C22.77797888 31.06150162 22.75831414 34.38925591 20.3125 38.4375 C17.19073791 41.29168248 14.72067906 41.56241787 10.65356445 41.55102539 C9.30250359 41.55091209 9.30250359 41.55091209 7.92414856 41.55079651 C6.95531235 41.54563522 5.98647614 41.54047394 4.98828125 41.53515625 C3.49641548 41.53303383 3.49641548 41.53303383 1.97441101 41.53086853 C-1.20458982 41.52526761 -4.38352043 41.51271496 -7.5625 41.5 C-9.71679586 41.49498512 -11.87109282 41.49042219 -14.02539062 41.48632812 C-19.30861774 41.47529788 -24.59180385 41.45855886 -29.875 41.4375 C-29.12127525 43.04345835 -28.35598934 44.64399371 -27.5859375 46.2421875 C-26.94857666 47.57999268 -26.94857666 47.57999268 -26.29833984 48.94482422 C-23.96075711 53.03860119 -21.37224227 55.07739178 -16.875 56.4375 C-9.16081164 57.37434344 -2.37012037 57.46384568 4.3515625 53.33984375 C7.67413213 51.64928519 10.47227354 52.00412567 14.125 52.4375 C16.125 53.5625 16.125 53.5625 17.125 55.4375 C17.6619995 58.96635383 17.4420389 60.84665477 15.75 64 C7.18426355 71.95389813 -2.77632442 72.83394413 -13.92578125 72.6484375 C-23.92388154 72.11441434 -32.34504533 67.47694919 -39.1875 60.1875 C-44.90603002 52.78127239 -46.60735026 44.75749398 -46.5 35.5625 C-46.49379639 34.60085938 -46.48759277 33.63921875 -46.48120117 32.6484375 C-46.24038259 24.61662916 -44.61330574 19.05067492 -39.875 12.4375 C-39.49214844 11.83164062 -39.10929687 11.22578125 -38.71484375 10.6015625 C-30.5976547 -0.86142132 -12.73955017 -5.24437313 0 0 Z " fill="#E3E1E0" transform="translate(479.875,668.5625)"/>
<path d="M0 0 C9.93766462 5.11940299 9.93766462 5.11940299 13 10 C13.5625 12.9375 13.5625 12.9375 13 16 C10.3125 18.9375 10.3125 18.9375 7 21 C3.25157166 20.6586797 0.41080586 19.33137632 -2.875 17.5625 C-10.49715122 13.67845829 -17.43652311 11.9817069 -26 13 C-30.5467442 14.49350983 -33.32481077 15.98721615 -36 20 C-36.43761518 23.93853665 -36.41164881 26.24531051 -34.5 29.75 C-29.38956273 34.34939354 -22.25980116 35.52688188 -15.6875 36.9375 C5.8961743 41.85464403 5.8961743 41.85464403 12.875 51.625 C16.07894731 58.38888876 16.23113814 67.15801458 13.9375 74.25 C9.90956158 83.19684939 2.76578886 88.1205008 -6 92 C-15.99202136 94.96581124 -30.24834171 94.51905675 -39.703125 90.2734375 C-50.7687163 84.1384328 -50.7687163 84.1384328 -54 79 C-54.49398209 75.0481433 -54.6085569 72.91283535 -52.375 69.5625 C-49.24886258 67.50583064 -47.71495002 67.61311763 -44 68 C-41.46038657 69.2292065 -39.18771821 70.45457294 -36.8125 71.9375 C-28.6846296 76.8652874 -21.32380627 78.62608985 -11.765625 76.50390625 C-7.65368625 74.89370015 -4.62977209 72.50636279 -2 69 C-1.24649798 64.78038867 -1.40741075 62.87866683 -3.8125 59.3125 C-10.37455392 54.55179422 -17.68196494 52.98880513 -25.5625 51.5625 C-36.22354281 49.52770198 -43.70880986 46.0523236 -50 37 C-53.60523577 30.95250774 -53.91831275 24.86548107 -53 18 C-50.50574762 10.09599135 -45.99750619 4.86229176 -38.87890625 0.78515625 C-27.79394377 -4.93020973 -11.3834629 -5.49757903 0 0 Z " fill="#E4E2E1" transform="translate(567,648)"/>
<path d="M0 0 C3.76060433 0.80584379 5.12858066 1.82097524 7.46990967 4.8210144 C9.48477148 8.59411983 9.16252995 12.60092598 9.1015625 16.78515625 C9.11357193 18.21957314 9.11357193 18.21957314 9.12582397 19.68296814 C9.14883636 22.72658065 9.13944884 25.76885226 9.125 28.8125 C9.12114948 31.85946626 9.12460696 34.90584343 9.14559937 37.95274353 C9.15766629 39.84476714 9.15505596 41.73695644 9.13589478 43.62892151 C9.15646999 48.47580059 9.26787401 51.85923245 12.5 55.75 C16.03424712 58.10616475 17.68644102 58.0481228 21.875 58.0625 C22.99648438 58.07925781 24.11796875 58.09601562 25.2734375 58.11328125 C28.95195112 57.69911446 30.67157335 57.13618125 33.5 54.75 C36.5522893 49.07522419 36.90422556 44.42323339 36.8359375 38.0546875 C36.84844138 36.18619439 36.8614781 34.31770477 36.875 32.44921875 C36.87893846 29.52835793 36.87491444 26.60784035 36.86035156 23.68701172 C36.85178414 20.85071955 36.87344496 18.01585392 36.8984375 15.1796875 C36.88509369 14.30875458 36.87174988 13.43782166 36.85800171 12.54049683 C36.91176189 8.12580175 37.07274161 6.30455707 39.85009766 2.69970703 C42.5 0.75 42.5 0.75 45.5 0.125 C49.66086976 0.99184787 50.92115093 2.37545751 53.5 5.75 C54.23570167 9.05434576 54.20115256 12.28553264 54.1640625 15.66015625 C54.16884613 16.62344345 54.17362976 17.58673065 54.17855835 18.57920837 C54.18195648 20.61751945 54.17276015 22.65588509 54.15185547 24.6940918 C54.12529318 27.77845652 54.15149962 30.85911372 54.18359375 33.94335938 C54.20575962 46.39502146 53.78059713 56.87301098 45.3125 66.75 C38.37603826 72.78619756 31.33114738 74.09326329 22.375 74.1875 C21.62307373 74.19773193 20.87114746 74.20796387 20.09643555 74.21850586 C11.83525454 74.08912804 5.38782177 71.53651944 -0.671875 65.90625 C-9.58934084 55.38821337 -8.76263953 41.84099225 -8.85009766 28.88891602 C-8.86671693 27.08605088 -8.89408485 25.2832532 -8.93212891 23.48071289 C-8.98699003 20.86049796 -9.00877411 18.24180601 -9.0234375 15.62109375 C-9.04610687 14.82094345 -9.06877625 14.02079315 -9.09213257 13.19639587 C-9.07682907 9.12753021 -8.7329022 6.50447014 -6.18603516 3.24243164 C-3.5 0.75 -3.5 0.75 0 0 Z " fill="#E3E0E0" transform="translate(753.5,667.25)"/>
<path d="M0 0 C7.16262976 4.32525952 7.16262976 4.32525952 9 8 C9.4524237 14.22082585 9.4524237 14.22082585 7.875 16.9375 C4.90825245 18.61865694 3.39876982 18.56646164 0 18 C-2.43407801 16.60196545 -4.68310614 15.06571003 -6.94921875 13.41015625 C-10.23448628 11.15114372 -13.04765957 10.82019261 -16.9375 10.75 C-17.79214844 10.72421875 -18.64679688 10.6984375 -19.52734375 10.671875 C-22.51930895 11.06891304 -23.85397407 11.90297009 -26 14 C-26.44702492 17.06531371 -26.61727038 19.01962939 -24.9375 21.6875 C-20.23549116 24.8727318 -15.09390612 26.27145138 -9.6875 27.8125 C-2.52663679 29.9904584 5.16199751 32.73373163 9.625 39.125 C12.39586886 45.02130388 11.8351687 52.23350369 10 58.3125 C5.47544684 64.3923683 -0.32456617 69.70143718 -8 71 C-20.13350526 71.97262567 -30.91947912 71.57419666 -40.625 63.375 C-43.80173385 60.40572632 -44.90759759 59.01642648 -45.3125 54.5625 C-45 51 -45 51 -43.375 49.0625 C-40.30324195 47.68829245 -38.35370136 47.67320815 -35 48 C-32.11328125 49.71484375 -32.11328125 49.71484375 -29.3125 51.9375 C-24.37698677 55.80808921 -21.4148603 57.15588738 -15.125 57.25 C-14.09632813 57.27578125 -13.06765625 57.3015625 -12.0078125 57.328125 C-8.57104665 56.95320509 -6.72306494 56.10642886 -4 54 C-3.16650049 51.04340127 -3.16650049 51.04340127 -4 48 C-8.28562987 43.51916545 -13.67556396 42.24411056 -19.4375 40.5 C-28.75866379 37.66678019 -35.06851346 34.96513906 -41 27 C-43.08582943 20.74251171 -43.1346802 13.39543597 -40.3125 7.4375 C-29.30765896 -4.16219731 -14.73570833 -6.1912821 0 0 Z " fill="#E4E2E1" transform="translate(412,670)"/>
<path d="M0 0 C3.1875 2.3125 3.1875 2.3125 5 5 C5.52081077 8.71077676 5.43439043 11.00345726 3.9375 14.4375 C2 16 2 16 -1.3125 16.5 C-5 16 -5 16 -7.5625 14 C-12.99385943 10.83993633 -18.85714494 11.2251626 -25 12 C-30.92118492 14.43646844 -33.69023107 17.40612876 -37.1171875 22.73828125 C-39.357186 28.47703848 -38.88622361 36.66659073 -37.3125 42.5859375 C-34.92736741 47.77360087 -31.12299337 51.43850331 -26 54 C-23.54709172 54.1509482 -21.14141991 54.23128564 -18.6875 54.25 C-17.37136719 54.27578125 -16.05523438 54.3015625 -14.69921875 54.328125 C-10.81748166 53.98381041 -9.17740887 53.11281311 -6 51 C-2.11095922 50.19612006 1.11552312 50.46068483 4.5625 52.5625 C6 55 6 55 6.0625 58.5 C4.78618222 62.70434093 3.56207708 63.54889242 0 66 C-10.00551836 70.63112564 -22.03443007 71.87751927 -32.80078125 69.33984375 C-41.38445682 65.91526852 -49.1455459 58.52609764 -52.85449219 50.04638672 C-54.96857107 44.11848765 -55.48767766 38.7676463 -55.4375 32.5 C-55.45748047 31.61441406 -55.47746094 30.72882812 -55.49804688 29.81640625 C-55.4911148 20.37492117 -51.82183053 12.11338308 -45.3203125 5.21875 C-33.44221104 -6.03920962 -14.4183914 -8.02186867 0 0 Z " fill="#E4E2E1" transform="translate(728,671)"/>
<path d="M0 0 C2.9375 1.8125 2.9375 1.8125 5 5 C5.40594933 8.70558872 5.29247067 12.2888722 5 16 C5.66386719 15.96519531 6.32773437 15.93039062 7.01171875 15.89453125 C15.81458146 15.62466247 15.81458146 15.62466247 20 19 C21.86922654 20.86922654 21.29230229 23.49751169 21.42578125 25.9921875 C21 28 21 28 19.36401367 29.61376953 C16.31557481 31.40133907 14.25776518 31.30188365 10.75 31.1875 C9.13351562 31.14689453 9.13351562 31.14689453 7.484375 31.10546875 C6.66453125 31.07066406 5.8446875 31.03585937 5 31 C5.11792986 36.67845532 5.24215403 42.35672395 5.37231445 48.03491211 C5.41573041 49.96814185 5.45740042 51.90141159 5.49731445 53.8347168 C5.55485631 56.60738202 5.6185962 59.37984457 5.68359375 62.15234375 C5.70030624 63.02213364 5.71701874 63.89192352 5.73423767 64.78807068 C5.45026213 68.71115966 5.45026213 68.71115966 7 72 C9.78390592 71.9909319 12.55495041 71.86692835 15.3359375 71.7421875 C18 72 18 72 19.82421875 73.32421875 C21.67712006 75.96506481 21.44748088 77.86763383 21 81 C18.72039992 83.93091439 16.4064048 85.59665718 13 87 C5.59964017 87.90918707 -0.8646766 87.45081395 -7 83 C-10.86937641 79.38858201 -11.77874886 73.86627477 -12.17437744 68.7409668 C-12.22944596 66.31437842 -12.22536431 63.89576359 -12.1953125 61.46875 C-12.1924826 60.59222778 -12.18965271 59.71570557 -12.18673706 58.81262207 C-12.17563492 56.04160301 -12.15054954 53.27091965 -12.125 50.5 C-12.11495729 48.6093797 -12.10583371 46.71875429 -12.09765625 44.828125 C-12.07572835 40.21862271 -12.04126845 35.60936806 -12 31 C-12.6199585 31.01812744 -13.23991699 31.03625488 -13.87866211 31.05493164 C-14.69085205 31.06903076 -15.50304199 31.08312988 -16.33984375 31.09765625 C-17.14542725 31.11578369 -17.95101074 31.13391113 -18.78100586 31.15258789 C-21 31 -21 31 -23.5625 29.4375 C-25.57975697 26.01693383 -25.6269883 23.90126052 -25 20 C-22.83868824 17.36590129 -21.32118648 16.14896927 -17.88671875 15.76171875 C-15.92290019 15.75125435 -13.95934865 15.8671628 -12 16 C-12.02320313 15.32453125 -12.04640625 14.6490625 -12.0703125 13.953125 C-12.09738281 12.61507812 -12.09738281 12.61507812 -12.125 11.25 C-12.14820313 10.36828125 -12.17140625 9.4865625 -12.1953125 8.578125 C-11.98637114 5.82009905 -11.51063339 4.30096477 -10 2 C-6.24952518 -0.50031654 -4.44143734 -0.53603554 0 0 Z " fill="#E2DFDF" transform="translate(933,653)"/>
<path d="M0 0 C2.26193416 3.01591221 2.46721932 4.821629 2.5390625 8.5 C1.46489968 11.73512568 -0.2276084 12.79633374 -3.125 14.5 C-6.71875 14.56640625 -6.71875 14.56640625 -10.625 14.0625 C-15.96351384 13.31148626 -15.96351384 13.31148626 -20.984375 14.8125 C-24.63798404 17.69271735 -26.20017576 21.02934066 -27.125 25.5 C-27.24150769 28.42152957 -27.3098138 31.32382501 -27.3359375 34.24609375 C-27.36399943 35.98763971 -27.39266385 37.72917606 -27.421875 39.47070312 C-27.4631533 42.20711056 -27.50005612 44.94333697 -27.52636719 47.67993164 C-27.55400661 50.32735896 -27.59986658 52.97397869 -27.6484375 55.62109375 C-27.65169037 56.4358165 -27.65494324 57.25053925 -27.65829468 58.08995056 C-27.78341767 63.88687217 -28.92303347 67.29803347 -33.125 71.5 C-37.10644156 71.9423824 -39.25616678 72.16305693 -42.5 69.6875 C-45.15653993 66.11138856 -45.26351227 63.16423619 -45.31787109 58.83862305 C-45.34196548 57.09617561 -45.34196548 57.09617561 -45.36654663 55.31852722 C-45.41101009 50.01093072 -45.4524902 44.70348132 -45.47509766 39.39575195 C-45.48843242 36.59528913 -45.51627878 33.79555578 -45.55712891 30.99536133 C-45.61600336 26.95902257 -45.63376545 22.92346456 -45.6484375 18.88671875 C-45.67110687 17.63654465 -45.69377625 16.38637054 -45.71713257 15.09831238 C-45.69356175 5.4129978 -45.69356175 5.4129978 -42.80712891 1.71411133 C-40.125 -0.5 -40.125 -0.5 -36.6875 -1.3125 C-31.7667651 -0.19022713 -29.92881543 2.47400861 -27.125 6.5 C-26.61710938 6.09007812 -26.10921875 5.68015625 -25.5859375 5.2578125 C-18.02785568 -0.65843882 -9.32293881 -4.47501063 0 0 Z " fill="#E1DEDE" transform="translate(869.125,668.5)"/>
<path d="M0 0 C4.51782606 3.3345859 8.59714464 7.6260073 10.625 12.9375 C11.4153854 20.91487822 11.94092732 29.41621707 6.625 35.9375 C1.75317482 40.9643378 -1.95044664 43.0757351 -9.0625 43.3125 C-15.12507329 43.26118439 -18.84367217 41.93251125 -23.375 37.9375 C-29.32403716 31.67535562 -29.82772446 25.76903626 -29.6875 17.390625 C-29.12786456 11.2066534 -27.00886475 7.14359408 -22.375 3.0625 C-15.38965619 -1.88545186 -8.26523793 -2.60201935 0 0 Z " fill="#223283" transform="translate(330.375,683.0625)"/>
<path d="M0 0 C4.99125 -0.103125 9.9825 -0.20625 15.125 -0.3125 C16.68879395 -0.35802002 18.25258789 -0.40354004 19.86376953 -0.45043945 C21.10755371 -0.46292725 22.35133789 -0.47541504 23.6328125 -0.48828125 C24.90012207 -0.51446533 26.16743164 -0.54064941 27.47314453 -0.56762695 C32.15404403 0.1857367 33.66834595 1.67780914 37 5 C40.26548138 9.89822207 39.68125046 15.28019414 39 21 C37.35361691 25.01497139 35.04633954 27.95366046 32 31 C29.56255103 31.17488254 27.2406392 31.23177405 24.8046875 31.1953125 C24.09724396 31.1924826 23.38980042 31.18965271 22.66091919 31.18673706 C20.3987749 31.17553137 18.13702485 31.15042679 15.875 31.125 C14.34245363 31.11497067 12.80990106 31.10584474 11.27734375 31.09765625 C7.51795465 31.0772912 3.75941922 31.03814518 0 31 C0 20.77 0 10.54 0 0 Z " fill="#203685" transform="translate(214,661)"/>
<path d="M0 0 C2.60422293 1.64548059 3.57311232 2.36095729 5 5 C5.76979781 9.6181865 5.7000359 14.20225188 5.6640625 18.875 C5.66743364 20.24593536 5.67228875 21.6168678 5.67855835 22.98779297 C5.68591594 25.85608474 5.6752621 28.72359609 5.65185547 31.59179688 C5.62336599 35.26083493 5.63977628 38.92804436 5.66971779 42.59701538 C5.68782233 45.42649002 5.68201881 48.25553406 5.66907883 51.08502197 C5.66414122 53.09298903 5.67927464 55.1009731 5.69473267 57.10888672 C5.56448822 67.23017012 5.56448822 67.23017012 2.68115234 70.328125 C-0.87713694 72.54695263 -2.884406 72.74828982 -7 72 C-9.61997073 69.41446327 -10.87157843 67.72895968 -11.5146637 64.07861328 C-11.52086227 63.00337402 -11.52706085 61.92813477 -11.53344727 60.8203125 C-11.5492836 59.59554199 -11.56511993 58.37077148 -11.58143616 57.10888672 C-11.57647629 55.7942041 -11.57151642 54.47952148 -11.56640625 53.125 C-11.57164498 51.75406472 -11.57792238 50.38313306 -11.58518982 49.01220703 C-11.59557955 46.14403274 -11.59105335 43.27635503 -11.57641602 40.40820312 C-11.55922082 36.73921708 -11.58273667 33.07179608 -11.61790562 29.40298462 C-11.6399033 26.57354428 -11.63843286 23.74447721 -11.6301403 20.91497803 C-11.6289256 18.90698152 -11.64883358 16.89900805 -11.66908264 14.89111328 C-11.56550514 4.7692323 -11.56550514 4.7692323 -8.64819336 1.671875 C-5.35284642 -0.40856529 -3.82351185 -0.79656497 0 0 Z " fill="#E5E3E1" transform="translate(893,668)"/>
<path d="M0 0 C4.90364187 3.6777314 7.25671871 6.65859354 8.5 12.875 C-3.05 12.875 -14.6 12.875 -26.5 12.875 C-25.44001372 6.51508229 -24.39570836 3.97224079 -19.26171875 0.25390625 C-13.43577798 -2.65494395 -6.07104694 -1.95140795 0 0 Z " fill="#2D3084" transform="translate(476.5,683.125)"/>
<path d="M0 0 C4.70676398 1.68513772 7.31771825 3.93393477 10 8.125 C11 11 11 11 11 14 C-0.55 14 -12.1 14 -24 14 C-21.74728682 6.11550388 -21.74728682 6.11550388 -18.5 3.625 C-17.58734375 2.90183594 -17.58734375 2.90183594 -16.65625 2.1640625 C-11.7388512 -1.29203383 -5.77251548 -0.59343617 0 0 Z " fill="#372B83" transform="translate(633,682)"/>
<path d="M0 0 C1.0725 0.00515625 2.145 0.0103125 3.25 0.015625 C4.85875 0.00789062 4.85875 0.00789062 6.5 0 C9.25 0.265625 9.25 0.265625 11.25 2.265625 C11.55078125 4.54296875 11.55078125 4.54296875 11.5625 7.203125 C11.57925781 8.07839844 11.59601562 8.95367188 11.61328125 9.85546875 C11.25 12.265625 11.25 12.265625 10.04296875 14.0625 C7.66738866 15.65657117 6.09222972 15.63310861 3.25 15.578125 C2.38375 15.57425781 1.5175 15.57039062 0.625 15.56640625 C-1.75 15.265625 -1.75 15.265625 -4.75 13.265625 C-5.11328125 10.734375 -5.11328125 10.734375 -5.0625 7.765625 C-5.05863281 6.7859375 -5.05476562 5.80625 -5.05078125 4.796875 C-4.61450046 1.12531717 -3.652714 0.35281897 0 0 Z " fill="#E5E3E1" transform="translate(886.75,643.734375)"/>
</svg>
